<svg xmlns="http://www.w3.org/2000/svg" viewBox="0 0 128 128" width="100%" height="100%">
  <rect width="128" height="128" rx="28" fill="#020617"/>
  <rect x="4" y="4" width="120" height="120" rx="24" fill="#0f172a" stroke="#f59e0b" stroke-width="4" stroke-opacity="0.4"/>
  <g fill="#f59e0b" filter="drop-shadow(0px 2px 8px rgba(245, 158, 11, 0.6))">
    <!-- Check Engine Light Symbol -->
    <path d="M116 68v-8h-8v-14h-8v-8H76V26H52v12H28c-4.4 0-8 3.6-8 8v8H8v16h12v10c0 4.4 3.6 8 8 8h12v8h24v-8h16c4.4 0 8-3.6 8-8v-4h16v-8h12zm-88-22h56v36H28V46zm10 8h10v18H38V54zm26 0h10v18H64V54z"/>
  </g>
</svg>
